<svg width="337" height="131" viewBox="0 0 337 131" fill="none" xmlns="http://www.w3.org/2000/svg">
<rect width="337" height="131" fill="#FFFAFA"/>
<g filter="url(#filter0_d_151_115)">
<path d="M55.6818 31.1818L72.5568 84.2273H73.2045L90.1136 31.1818H106.477L82.4091 101H63.3864L39.2841 31.1818H55.6818ZM111.041 101V31.1818H125.802V88.8295H155.734V101H111.041ZM223.11 66.0909C223.11 73.7045 221.667 80.1818 218.78 85.5227C215.917 90.8636 212.008 94.9432 207.053 97.7614C202.121 100.557 196.576 101.955 190.417 101.955C184.212 101.955 178.644 100.545 173.712 97.7273C168.78 94.9091 164.883 90.8295 162.019 85.4886C159.155 80.1477 157.723 73.6818 157.723 66.0909C157.723 58.4773 159.155 52 162.019 46.6591C164.883 41.3182 168.78 37.25 173.712 34.4545C178.644 31.6364 184.212 30.2273 190.417 30.2273C196.576 30.2273 202.121 31.6364 207.053 34.4545C212.008 37.25 215.917 41.3182 218.78 46.6591C221.667 52 223.11 58.4773 223.11 66.0909ZM208.144 66.0909C208.144 61.1591 207.405 57 205.928 53.6136C204.473 50.2273 202.417 47.6591 199.757 45.9091C197.098 44.1591 193.985 43.2841 190.417 43.2841C186.848 43.2841 183.735 44.1591 181.076 45.9091C178.417 47.6591 176.348 50.2273 174.871 53.6136C173.417 57 172.689 61.1591 172.689 66.0909C172.689 71.0227 173.417 75.1818 174.871 78.5682C176.348 81.9545 178.417 84.5227 181.076 86.2727C183.735 88.0227 186.848 88.8977 190.417 88.8977C193.985 88.8977 197.098 88.0227 199.757 86.2727C202.417 84.5227 204.473 81.9545 205.928 78.5682C207.405 75.1818 208.144 71.0227 208.144 66.0909ZM256.557 76.7273H269.102L275.409 84.8409L281.614 92.0682L293.307 106.727H279.534L271.489 96.8409L267.364 90.9773L256.557 76.7273ZM294.364 66.0909C294.364 73.7045 292.92 80.1818 290.034 85.5227C287.17 90.8636 283.261 94.9432 278.307 97.7614C273.375 100.557 267.829 101.955 261.67 101.955C255.466 101.955 249.898 100.545 244.966 97.7273C240.034 94.9091 236.136 90.8295 233.273 85.4886C230.409 80.1477 228.977 73.6818 228.977 66.0909C228.977 58.4773 230.409 52 233.273 46.6591C236.136 41.3182 240.034 37.25 244.966 34.4545C249.898 31.6364 255.466 30.2273 261.67 30.2273C267.829 30.2273 273.375 31.6364 278.307 34.4545C283.261 37.25 287.17 41.3182 290.034 46.6591C292.92 52 294.364 58.4773 294.364 66.0909ZM279.398 66.0909C279.398 61.1591 278.659 57 277.182 53.6136C275.727 50.2273 273.67 47.6591 271.011 45.9091C268.352 44.1591 265.239 43.2841 261.67 43.2841C258.102 43.2841 254.989 44.1591 252.329 45.9091C249.67 47.6591 247.602 50.2273 246.125 53.6136C244.67 57 243.943 61.1591 243.943 66.0909C243.943 71.0227 244.67 75.1818 246.125 78.5682C247.602 81.9545 249.67 84.5227 252.329 86.2727C254.989 88.0227 258.102 88.8977 261.67 88.8977C265.239 88.8977 268.352 88.0227 271.011 86.2727C273.67 84.5227 275.727 81.9545 277.182 78.5682C278.659 75.1818 279.398 71.0227 279.398 66.0909Z" fill="black"/>
</g>
<defs>
<filter id="filter0_d_151_115" x="37.2842" y="30.2271" width="263.079" height="84.5" filterUnits="userSpaceOnUse" color-interpolation-filters="sRGB">
<feFlood flood-opacity="0" result="BackgroundImageFix"/>
<feColorMatrix in="SourceAlpha" type="matrix" values="0 0 0 0 0 0 0 0 0 0 0 0 0 0 0 0 0 0 127 0" result="hardAlpha"/>
<feOffset dx="2" dy="4"/>
<feGaussianBlur stdDeviation="2"/>
<feComposite in2="hardAlpha" operator="out"/>
<feColorMatrix type="matrix" values="0 0 0 0 0 0 0 0 0 0 0 0 0 0 0 0 0 0 0.25 0"/>
<feBlend mode="normal" in2="BackgroundImageFix" result="effect1_dropShadow_151_115"/>
<feBlend mode="normal" in="SourceGraphic" in2="effect1_dropShadow_151_115" result="shape"/>
</filter>
</defs>
</svg>
